<svg width="6" height="6" viewBox="0 0 6 6" fill="none" xmlns="http://www.w3.org/2000/svg">
<path fill-rule="evenodd" clip-rule="evenodd" d="M3 5.5C4.38071 5.5 5.5 4.38071 5.5 3C5.5 1.61929 4.38071 0.5 3 0.5C1.61929 0.5 0.5 1.61929 0.5 3C0.5 4.38071 1.61929 5.5 3 5.5ZM3 6C4.65685 6 6 4.65685 6 3C6 1.34315 4.65685 0 3 0C1.34315 0 0 1.34315 0 3C0 4.65685 1.34315 6 3 6Z" fill="#335E74"/>
<path d="M3.19385 2.12695C3.09131 2.12695 2.99951 2.14551 2.91846 2.18262C2.83838 2.21973 2.77051 2.27344 2.71484 2.34375C2.65918 2.41309 2.6167 2.49756 2.5874 2.59717C2.55811 2.6958 2.54346 2.80713 2.54346 2.93115C2.54346 3.09717 2.56689 3.24023 2.61377 3.36035C2.66064 3.47949 2.73193 3.57129 2.82764 3.63574C2.92334 3.69922 3.04443 3.73096 3.19092 3.73096C3.28174 3.73096 3.37012 3.72217 3.45605 3.70459C3.54199 3.68701 3.63086 3.66309 3.72266 3.63281V3.93164C3.63574 3.96582 3.54785 3.99072 3.45898 4.00635C3.37012 4.02197 3.26758 4.02979 3.15137 4.02979C2.93262 4.02979 2.75098 3.98438 2.60645 3.89355C2.46289 3.80273 2.35547 3.6748 2.28418 3.50977C2.21387 3.34473 2.17871 3.15137 2.17871 2.92969C2.17871 2.76758 2.20117 2.61914 2.24609 2.48438C2.29102 2.34961 2.35645 2.2334 2.44238 2.13574C2.52832 2.03711 2.63428 1.96143 2.76025 1.90869C2.88721 1.85498 3.03223 1.82812 3.19531 1.82812C3.30273 1.82812 3.4082 1.84033 3.51172 1.86475C3.61621 1.88818 3.71289 1.92188 3.80176 1.96582L3.67871 2.25586C3.60449 2.2207 3.52686 2.19043 3.4458 2.16504C3.36475 2.13965 3.28076 2.12695 3.19385 2.12695Z" fill="#335E74"/>
</svg>
