<svg width="11" height="8" viewBox="0 0 11 8" fill="none" xmlns="http://www.w3.org/2000/svg">
<path d="M6.21873 6.63058C6.21873 6.75966 6.27046 6.88354 6.36253 6.97481C6.4546 7.06608 6.57954 7.11737 6.70975 7.11737H9.65586C9.78607 7.11737 9.91102 7.06608 10.0031 6.97481C10.0951 6.88354 10.1469 6.75966 10.1469 6.63058V3.22302C10.345 3.22193 10.5233 3.10306 10.5987 2.92116C10.6756 2.73992 10.6348 2.53064 10.4954 2.39069L8.53135 0.443512C8.43884 0.35224 8.31324 0.301601 8.18281 0.302252H3.27262C3.1422 0.3016 3.01659 0.352236 2.92409 0.443512L0.960016 2.39069C0.8206 2.53064 0.779831 2.73992 0.856772 2.92116C0.932181 3.10306 1.11039 3.22193 1.30856 3.22302V6.63058C1.30856 6.75966 1.36029 6.88354 1.45235 6.97481C1.54442 7.06608 1.66937 7.11737 1.79957 7.11737H4.74569C4.87589 7.11737 5.00084 7.06608 5.09291 6.97481C5.18497 6.88354 5.23671 6.75966 5.23671 6.63058V5.65699H6.21874L6.21873 6.63058ZM4.74568 4.6834C4.47452 4.6834 4.25466 4.90137 4.25466 5.1702V6.14378H2.29058V3.22302H2.7816V3.70981H3.76364V3.22302H4.25466V3.70981H5.23669V3.22302H5.72771V3.70981H6.70975V3.22302H7.20077V3.70981H8.18281V3.22302H9.16485V6.14378H7.20077V5.1702C7.20077 5.04111 7.14904 4.91724 7.05697 4.82596C6.96491 4.73469 6.83996 4.6834 6.70975 4.6834H4.74568Z" fill="#CAD3DB"/>
</svg>
